<?xml version="1.0" encoding="UTF-8"?>
<svg version="1.1" xmlns="http://www.w3.org/2000/svg" width="480" height="480">
<path d="M0 0 C158.4 0 316.8 0 480 0 C480 158.4 480 316.8 480 480 C321.6 480 163.2 480 0 480 C0 321.6 0 163.2 0 0 Z " fill="#144141" transform="translate(0,0)"/>
<path d="M0 0 C0.33 0 0.66 0 1 0 C1 86.13 1 172.26 1 261 C-157.4 261 -315.8 261 -479 261 C-479 228.66 -479 196.32 -479 163 C-475.9592226 159.9592226 -474.11832931 159.01599973 -470.20703125 157.43359375 C-469.03060059 156.952854 -467.85416992 156.47211426 -466.64208984 155.97680664 C-465.36557437 155.46366842 -464.08904409 154.95056704 -462.8125 154.4375 C-461.50437925 153.90505202 -460.19660234 153.37175854 -458.88916016 152.83764648 C-456.22275601 151.74903878 -453.5550403 150.66375073 -450.88623047 149.58105469 C-445.2029416 147.27257571 -439.53813478 144.91990753 -433.875 142.5625 C-432.4669812 141.98036743 -432.4669812 141.98036743 -431.03051758 141.38647461 C-425.47127499 139.07663794 -419.97691194 136.654319 -414.51220703 134.12866211 C-407.52200176 130.98816464 -407.52200176 130.98816464 -403.7265625 131.07421875 C-399.04250636 130.98093042 -395.63829494 129.63155605 -391.375 127.8125 C-390.63765625 127.52052734 -389.9003125 127.22855469 -389.140625 126.92773438 C-384.41737221 124.95971238 -381.58698917 122.71785776 -378 119 C-375.02734375 117.3828125 -375.02734375 117.3828125 -371.9375 116.125 C-370.91527344 115.69445312 -369.89304687 115.26390625 -368.83984375 114.8203125 C-366 114 -366 114 -364.1574707 114.57055664 C-361.13371784 115.17243299 -359.45684745 114.25353279 -356.640625 113.05078125 C-355.60679687 112.61443359 -354.57296875 112.17808594 -353.5078125 111.72851562 C-352.43273437 111.26123047 -351.35765625 110.79394531 -350.25 110.3125 C-349.19039062 109.86455078 -348.13078125 109.41660156 -347.0390625 108.95507812 C-341.87183359 106.75291543 -336.80160087 104.44449525 -331.80175781 101.88696289 C-328.85383052 100.43576779 -325.80888019 99.25758198 -322.75 98.0625 C-316.12722495 95.46689275 -309.56028075 92.74978974 -303 90 C-302.98018066 90.71953857 -302.96036133 91.43907715 -302.93994141 92.18041992 C-303.54665391 116.74340849 -303.54665391 116.74340849 -295 139 C-292.13896396 140.74121622 -292.13896396 140.74121622 -289 140 C-281.32389069 135.84210746 -278.71624717 127.02467545 -276.02734375 119.15234375 C-274.0234743 111.99279008 -273.30906821 104.70423975 -272.64550781 97.32177734 C-272.09168548 91.18337095 -272.09168548 91.18337095 -271 89 C-270.76827173 86.45384991 -270.58105471 83.92603775 -270.4375 81.375 C-270.37272461 80.31539062 -270.37272461 80.31539062 -270.30664062 79.234375 C-270.20055249 77.48981463 -270.09977111 75.74493303 -270 74 C-269.34 74 -268.68 74 -268 74 C-267.67 73.34 -267.34 72.68 -267 72 C-266.87044922 73.12921875 -266.87044922 73.12921875 -266.73828125 74.28125 C-264.77827894 89.09814818 -260.09126036 102.01311014 -253.03076172 115.0859375 C-252.04204277 116.92192911 -251.08444597 118.77158679 -250.12890625 120.625 C-246.6139386 127.17263206 -242.73216407 132.903004 -237.9375 138.5625 C-237.45506836 139.13436035 -236.97263672 139.7062207 -236.47558594 140.29541016 C-232.26167562 145.08471956 -227.59298445 149.86204623 -221.0625 150.8125 C-220.051875 150.874375 -219.04125 150.93625 -218 151 C-218 151.99 -218 152.98 -218 154 C-188.63452937 140.96199701 -188.63452937 140.96199701 -160.30078125 125.88671875 C-156.68027857 123.81724799 -152.99333311 121.95885051 -149.25 120.125 C-137.96040238 114.57280685 -126.64655495 108.74855003 -116.3125 101.54296875 C-113.84502971 99.89659922 -111.30935542 98.38999333 -108.75170898 96.88867188 C-101.05565453 92.36967427 -93.77846292 87.45426517 -86.59179688 82.16699219 C-85.12638775 81.0926585 -83.6496294 80.03385087 -82.171875 78.9765625 C-74.5962296 73.54956506 -67.28415327 67.80847506 -60 62 C-59.04996094 61.2471875 -58.09992188 60.494375 -57.12109375 59.71875 C-40.70416592 46.52785603 -24.89583613 31.66855414 -12 15 C-11.01665539 13.74788802 -10.03221067 12.4966395 -9.046875 11.24609375 C-7.08810921 8.7595598 -5.13559552 6.268336 -3.1875 3.7734375 C-1 1 -1 1 0 0 Z " fill="#113E3F" transform="translate(479,219)"/>
<path d="M0 0 C2 2 2 2 2.1875 5.25 C0.71244723 9.90806138 -0.78583935 11.08461203 -4.8984375 13.51953125 C-27.43411169 24.27648404 -55.91395453 26.91687799 -80 20 C-84.87761794 18.09938973 -89.58610834 16.09667 -93 12 C-93.5 9.125 -93.5 9.125 -93 6 C-74.72005395 -14.96144082 -21.20208579 -16.1135852 0 0 Z " fill="#F8F9F9" transform="translate(364,270)"/>
<path d="M0 0 C21.29176654 10.70887666 32.87685919 38.33036508 40.23046875 59.55078125 C42.16867108 66.42093503 43.20700748 73.91952305 42 81 C39.74923541 84.48676138 38.90332061 85.78745397 34.8125 86.75 C25.1890133 84.85685508 17.1801476 75.12980994 11.85888672 67.32666016 C9.06180582 62.98479791 6.52287012 58.50472351 4 54 C3.45980225 53.06099854 3.45980225 53.06099854 2.90869141 52.10302734 C-4.35848934 39.46373566 -10.12558876 26.20348785 -10.3125 11.4375 C-10.34150391 10.66986328 -10.37050781 9.90222656 -10.40039062 9.11132812 C-10.46318419 3.57100378 -10.46318419 3.57100378 -8.35546875 0.97265625 C-5.29231968 -0.2922262 -3.29336135 -0.41793926 0 0 Z " fill="#F9FAFA" transform="translate(223,284)"/>
<path d="M0 0 C2.22132153 0.8344647 4.41332886 1.38650395 6.71484375 1.95703125 C23.29022357 6.88833584 38.91072323 18.03880847 51.21484375 29.83203125 C51.89804687 30.46367187 52.58125 31.0953125 53.28515625 31.74609375 C57.71663743 35.95507378 60.83575327 39.67294392 61.58984375 45.95703125 C61.15186488 49.31486924 60.62621873 50.47523471 58.21484375 52.83203125 C38.92827276 56.41735534 17.75553856 44.21070265 2.21484375 33.83203125 C-0.88988662 31.61513539 -3.85439832 29.27349739 -6.78515625 26.83203125 C-7.63464844 26.12949219 -8.48414063 25.42695313 -9.359375 24.703125 C-21.48158772 14.28418282 -21.48158772 14.28418282 -23.3203125 6.59375 C-23.47265625 4.45703125 -23.47265625 4.45703125 -22.78515625 0.83203125 C-17.3911533 -5.119972 -6.64055837 -2.55585639 0 0 Z " fill="#F9FAFA" transform="translate(266.78515625,288.16796875)"/>
<path d="M0 0 C2.14453125 1.09765625 2.14453125 1.09765625 4 3 C4.390625 6.13671875 4.390625 6.13671875 4.25 9.6875 C4.21390625 10.86699219 4.1778125 12.04648438 4.140625 13.26171875 C4.09421875 14.16535156 4.0478125 15.06898438 4 16 C3.34 16 2.68 16 2 16 C1.95746094 16.804375 1.95746094 16.804375 1.9140625 17.625 C0.76171231 27.09295836 -4.69893317 34.34693051 -10 42 C-10.39751465 42.57685547 -10.7950293 43.15371094 -11.20458984 43.74804688 C-19.92621413 56.1958806 -31.09230027 69.35079499 -45 76 C-45.66515625 76.36738281 -46.3303125 76.73476563 -47.015625 77.11328125 C-50.50340088 78.67179528 -53.20262663 78.36165461 -57 78 C-59 76.5 -59 76.5 -60 74 C-61.78341825 59.47787998 -50.99933656 42.80981601 -42.38647461 31.7644043 C-39.6776059 28.42994574 -36.8739226 25.19287817 -34 22 C-33.45794922 21.39607422 -32.91589844 20.79214844 -32.35742188 20.16992188 C-24.55900906 11.62075933 -12.60529984 -1.22978535 0 0 Z " fill="#FAFAFA" transform="translate(188,236)"/>
<path d="M0 0 C2.79413168 2.66738756 2.98884294 3.67644523 3.125 7.625 C0.98805966 19.90104026 -12.64644355 31.5898345 -22 39 C-22.94875 39.75925781 -23.8975 40.51851562 -24.875 41.30078125 C-36.56614311 50.30351083 -53.56977468 61.16415306 -68.6875 61.375 C-69.61949219 61.40335937 -70.55148437 61.43171875 -71.51171875 61.4609375 C-74 61 -74 61 -75.828125 59.23828125 C-77.85397592 55.36890599 -77.17959301 52.09892096 -76 48 C-71.15324473 38.43616853 -63.14496776 30.76750998 -55 24 C-54.319375 23.39671875 -53.63875 22.7934375 -52.9375 22.171875 C-39.45300688 10.65387046 -18.45548064 -3.56330851 0 0 Z " fill="#FAFBFB" transform="translate(363,198)"/>
<path d="M0 0 C2.61593153 1.83115207 2.96989455 2.90968366 4 6 C5.27089049 32.89558936 -3.20399939 57.31990161 -19 79 C-19.52980469 79.76699219 -20.05960937 80.53398437 -20.60546875 81.32421875 C-21.06566406 81.87722656 -21.52585937 82.43023437 -22 83 C-22.66 83 -23.32 83 -24 83 C-24 83.66 -24 84.32 -24 85 C-27.25749833 87.7401785 -30.50622973 89.96680511 -34.8125 90.0625 C-37.49669947 88.75874597 -38.52419052 87.58266658 -40 85 C-43.37153748 74.46099822 -40.54108514 63.14985846 -37.546875 52.89013672 C-37.04476224 51.15470948 -36.5828572 49.40778084 -36.125 47.66015625 C-32.00245946 32.77115939 -18.70670386 -2.04073133 0 0 Z " fill="#FBFBFB" transform="translate(324,139)"/>
<path d="M0 0 C2 2 2 2 2.375 4.75 C1.64406496 11.08477037 -1.93637587 14.13319708 -6.625 18.0625 C-11.49871011 21.80278916 -16.40176724 24.5127417 -22 27 C-23.19625 27.55558594 -24.3925 28.11117187 -25.625 28.68359375 C-40.77659985 35.62330084 -55.32234496 40.14469719 -72.125 40.3125 C-73.58873047 40.35600586 -73.58873047 40.35600586 -75.08203125 40.40039062 C-79.49829937 40.43955262 -82.23548004 40.43618679 -86.12890625 38.21484375 C-88.34660704 35.58971567 -88.91334507 33.58066299 -88.65234375 30.13671875 C-85.63802393 20.26346761 -71.39401376 13.94703842 -62.83984375 9.2734375 C-54.58212752 5.20199713 -46.00272858 2.77250156 -37.11132812 0.53613281 C-35.21907592 0.05563029 -33.33539047 -0.4583176 -31.453125 -0.9765625 C-20.93106816 -3.7225627 -9.98580601 -4.99290301 0 0 Z " fill="#FAFBFB" transform="translate(197,208)"/>
<path d="M0 0 C13.16456564 -0.64707187 24.66870731 8.26295299 33.95141602 16.66625977 C35.15612493 17.78390057 36.35548518 18.90734074 37.54882812 20.03710938 C38.96762136 21.37434324 40.42236379 22.67323304 41.8828125 23.96484375 C47.45436603 29.1050512 51.76191493 34.92806442 56.0546875 41.13671875 C56.6027002 41.92836426 57.15071289 42.72000977 57.71533203 43.53564453 C66.80768043 57.07451342 66.80768043 57.07451342 66.6171875 65.01171875 C66.61589844 65.83542969 66.61460937 66.65914063 66.61328125 67.5078125 C66.1796875 69.57421875 66.1796875 69.57421875 63.1796875 71.57421875 C50.75127671 72.90583419 41.47138078 66.29827781 32.171875 58.90625 C17.31934492 46.70010597 0.83041077 29.78815577 -3.8203125 10.57421875 C-4.55714039 1.43755287 -4.55714039 1.43755287 0 0 Z " fill="#FAFBFB" transform="translate(184.8203125,120.42578125)"/>
<path d="M0 0 C4.97189597 1.16985788 7.22782832 3.66106156 10.1875 7.75 C21.7825256 27.06032584 25.3659661 47.70250103 25.5625 70 C25.57635742 70.92723877 25.59021484 71.85447754 25.60449219 72.80981445 C25.55126987 80.57116864 24.58047183 88.77712076 19.1875 94.75 C15.62680465 95.36925137 13.82532628 95.11675011 10.6875 93.3125 C-5.31148719 76.91353813 -9.9405927 47.81522081 -10.0625 25.75 C-10.083125 24.81671875 -10.10375 23.8834375 -10.125 22.921875 C-10.16712129 15.38216425 -8.85773924 9.20574906 -5 2.6875 C-2.8125 0.75 -2.8125 0.75 0 0 Z " fill="#FAFBFB" transform="translate(256.8125,109.25)"/>
<path d="M0 0 C3.13822716 1.84679379 6.104141 3.79454447 9 6 C9.99 6.7425 10.98 7.485 12 8.25 C14 10 14 10 15 12 C15.04022391 14.3329866 15.04320247 16.66706666 15 19 C7.52907442 23.56499029 1.56099288 24.7555294 -7.125 24.5 C-8.77640991 24.47123779 -8.77640991 24.47123779 -10.46118164 24.44189453 C-25.11279272 24.04465733 -38.33607309 20.65325861 -52.05712891 15.69921875 C-53.71239813 15.10350487 -55.3768446 14.53339284 -57.04296875 13.96875 C-63.29157191 11.72119041 -68.00879421 8.34274205 -73 4 C-74.010625 3.154375 -75.02125 2.30875 -76.0625 1.4375 C-78 -1 -78 -1 -78.625 -4.0625 C-78 -7 -78 -7 -75.875 -9.25 C-55.59655124 -21.59340359 -19.21050699 -10.53249331 0 0 Z " fill="#FBFBFB" transform="translate(206,177)"/>
<path d="M0 0 C7.18469258 6.01509146 7.96302872 16.15304683 9 25 C10.11379121 46.52092122 9.91301563 74.4107117 -4.5078125 91.8203125 C-6.99563264 94.20393075 -8.68591909 94.98115515 -12.125 95.1875 C-16.62964501 93.32688576 -18.03280981 90.30139451 -19.875 85.91796875 C-27.05324589 66.21230334 -23.9963832 40.59381552 -18 21 C-17.73574219 19.9996875 -17.47148437 18.999375 -17.19921875 17.96875 C-14.73732931 9.37925029 -10.47303409 -1.34954533 0 0 Z " fill="#FBFBFB" transform="translate(199,265)"/>
<path d="M0 0 C-0.33 2.31 -0.66 4.62 -1 7 C-1.495 6.01 -1.495 6.01 -2 5 C-3.00675781 5.59425781 -4.01351562 6.18851563 -5.05078125 6.80078125 C-8.87207565 9.05442415 -12.69738599 11.30117527 -16.52392578 13.54589844 C-18.12744859 14.48758468 -19.73004922 15.43084371 -21.33154297 16.37597656 C-30.57341017 21.82767302 -39.89200871 27.10250852 -49.375 32.125 C-50.2609082 32.5986499 -51.14681641 33.0722998 -52.05957031 33.56030273 C-52.89327148 33.99673096 -53.72697266 34.43315918 -54.5859375 34.8828125 C-55.3186084 35.26840332 -56.0512793 35.65399414 -56.80615234 36.05126953 C-59.18901494 37.0817396 -61.44461936 37.57756276 -64 38 C-62.76205391 34.28616174 -61.85183366 34.08276845 -58.4765625 32.29296875 C-57.53683594 31.78830078 -56.59710938 31.28363281 -55.62890625 30.76367188 C-54.63761719 30.24353516 -53.64632812 29.72339844 -52.625 29.1875 C-51.67238281 28.67896484 -50.71976563 28.17042969 -49.73828125 27.64648438 C-47.8021243 26.61290668 -45.86435663 25.58234105 -43.92504883 24.5546875 C-36.71854077 20.72436922 -29.55196701 16.84038784 -22.5625 12.625 C-21.93633789 12.24996338 -21.31017578 11.87492676 -20.66503906 11.48852539 C-15.4356524 8.32849688 -10.39485599 4.94065727 -5.390625 1.43359375 C-3 0 -3 0 0 0 Z " fill="#1F4D4D" transform="translate(287,247)"/>
<path d="M0 0 C0.66 0.33 1.32 0.66 2 1 C1.67 2.32 1.34 3.64 1 5 C0.01 5 -0.98 5 -2 5 C-4.32786072 5.82262747 -6.59406409 6.68763302 -8.875 7.625 C-9.54047852 7.89497803 -10.20595703 8.16495605 -10.89160156 8.44311523 C-17.35541531 11.09334034 -23.68260674 14.01948626 -30 17 C-36.92339393 20.24896698 -43.89738559 23.18734321 -51.0546875 25.88671875 C-53.71685571 26.89297597 -56.36135651 27.93383224 -59 29 C-57.98794342 26.27406412 -57.27566528 25.16557846 -54.74780273 23.6472168 C-53.35476929 23.05420776 -53.35476929 23.05420776 -51.93359375 22.44921875 C-50.38103882 21.77753662 -50.38103882 21.77753662 -48.79711914 21.09228516 C-47.68844482 20.62870605 -46.57977051 20.16512695 -45.4375 19.6875 C-44.30884521 19.2032959 -43.18019043 18.7190918 -42.01733398 18.22021484 C-34.87825154 15.16953329 -27.70310532 12.20541597 -20.5065918 9.29296875 C-15.91093322 7.42051468 -11.46742547 5.35603536 -7.078125 3.04296875 C-4.74934026 1.87419897 -2.46901774 0.83799443 0 0 Z " fill="#1C4A4A" transform="translate(175,306)"/>
<path d="M0 0 C6.6 0 13.2 0 20 0 C17.67532261 2.32467739 15.9541155 3.79351876 13.2421875 5.48046875 C12.53449219 5.92197266 11.82679687 6.36347656 11.09765625 6.81835938 C10.36417969 7.27017578 9.63070313 7.72199219 8.875 8.1875 C8.13378906 8.65091797 7.39257812 9.11433594 6.62890625 9.59179688 C1.13763347 13 1.13763347 13 0 13 C0 8.71 0 4.42 0 0 Z " fill="#1B4949" transform="translate(0,0)"/>
<path d="M0 0 C0 0.66 0 1.32 0 2 C-3.07535458 3.37283042 -6.16134281 4.71989793 -9.25 6.0625 C-10.12269531 6.45244141 -10.99539062 6.84238281 -11.89453125 7.24414062 C-13.16103516 7.79038086 -13.16103516 7.79038086 -14.453125 8.34765625 C-15.22817383 8.68804932 -16.00322266 9.02844238 -16.80175781 9.37915039 C-19.28962782 10.0817996 -20.59104242 9.84697413 -23 9 C-19.24367049 5.74585358 -14.92159479 4.10372908 -10.375 2.25 C-9.21097656 1.75693359 -9.21097656 1.75693359 -8.0234375 1.25390625 C-7.2809375 0.94839844 -6.5384375 0.64289063 -5.7734375 0.328125 C-5.09716309 0.0487207 -4.42088867 -0.23068359 -3.72412109 -0.51855469 C-2 -1 -2 -1 0 0 Z " fill="#1B4949" transform="translate(98,341)"/>
<path d="M0 0 C0 0.33 0 0.66 0 1 C-1.03253906 1.21398437 -2.06507813 1.42796875 -3.12890625 1.6484375 C-7.5025141 2.89803974 -9.92080602 5.33709563 -12.9375 8.625 C-13.43056641 9.140625 -13.92363281 9.65625 -14.43164062 10.1875 C-15.63295314 11.44712865 -16.81820737 12.7220398 -18 14 C-18 10.30159372 -17.17133056 9.68584567 -14.75 7 C-14.14671875 6.319375 -13.5434375 5.63875 -12.921875 4.9375 C-8.57211001 0.55237107 -6.29576382 -0.36321714 0 0 Z " fill="#CCD4D3" transform="translate(324,139)"/>
<path d="M0 0 C0.33 0 0.66 0 1 0 C1.21432579 6.64409958 0.51233701 12.53205867 -1 19 C-1.33 19 -1.66 19 -2 19 C-2 13.39 -2 7.78 -2 2 C-1.34 2 -0.68 2 0 2 C0 1.34 0 0.68 0 0 Z " fill="#063B3B" transform="translate(211,291)"/>
<path d="M0 0 C0.90105469 0.19464844 1.80210937 0.38929688 2.73046875 0.58984375 C3.41753906 0.74582031 4.10460937 0.90179688 4.8125 1.0625 C4.8125 1.7225 4.8125 2.3825 4.8125 3.0625 C3.39499437 2.94740339 1.97848831 2.81996342 0.5625 2.6875 C-0.22640625 2.61789063 -1.0153125 2.54828125 -1.828125 2.4765625 C-4.273377 2.04742887 -6.03586903 1.27649362 -8.1875 0.0625 C-4.80475734 -1.06508089 -3.41971777 -0.75500262 0 0 Z " fill="#375E5E" transform="translate(176.1875,164.9375)"/>
</svg>
